<svg width="75" height="89" viewBox="0 0 75 89" fill="#5BA22F" xmlns="http://www.w3.org/2000/svg">
<path d="M38.1484 5.625H36.3828V9.15H38.1484V5.625Z" />
<path d="M44.1317 8.09754L41.6348 10.5901L42.8833 11.8364L45.3802 9.34381L44.1317 8.09754Z" />
<path d="M47.8594 15.3187H44.3281V17.0812H47.8594V15.3187Z" />
<path d="M42.8849 20.5626L41.6364 21.8088L44.1333 24.3014L45.3818 23.0552L42.8849 20.5626Z" />
<path d="M38.1484 23.25H36.3828V26.775H38.1484V23.25Z" />
<path d="M31.647 20.5625L29.15 23.0551L30.3985 24.3013L32.8955 21.8088L31.647 20.5625Z" />
<path d="M30.2031 15.3187H26.6719V17.0812H30.2031V15.3187Z" />
<path d="M30.3987 8.09953L29.1503 9.34583L31.6473 11.8383L32.8957 10.592L30.3987 8.09953Z" />
<path d="M39.0312 16.2C39.0301 15.8413 38.9186 15.4917 38.7117 15.1985C38.5048 14.9053 38.2126 14.6827 37.8747 14.5608L37.2656 10.9125L36.6564 14.5608C36.3529 14.6722 36.0858 14.8647 35.8844 15.1173C35.6829 15.3698 35.5548 15.6728 35.5141 15.993C35.4733 16.3133 35.5215 16.6386 35.6533 16.9334C35.7851 17.2282 35.9954 17.4812 36.2615 17.6648C36.5275 17.8484 36.8389 17.9556 37.1617 17.9746C37.4846 17.9936 37.8065 17.9237 38.0922 17.7725C38.378 17.6214 38.6167 17.3948 38.7823 17.1175C38.9479 16.8402 39.034 16.5228 39.0312 16.2Z" />
<path fill-rule="evenodd" clip-rule="evenodd" d="M59.6537 47.925H63.75V44.4H74.3438V79.65H63.75V76.125H59.6537C57.2709 79.9029 53.9675 83.0161 50.0523 85.1738C46.1371 87.3315 41.7379 88.4632 37.2656 88.4632C32.7934 88.4632 28.3941 87.3315 24.4789 85.1738C20.5637 83.0161 17.2603 79.9029 14.8775 76.125H10.7812V79.65H3.71875H0.1875V77.8875V70.8375V67.3125V56.7375V53.2125V46.1625V44.4H3.71875H10.7812V47.925H14.8775C16.9792 44.5932 19.8029 41.7745 23.1406 39.6765V33.825H33.7344V31.6536C29.9253 30.7869 26.5695 28.5499 24.308 25.3698C22.0465 22.1898 21.0378 18.2895 21.4746 14.4141C21.9115 10.5386 23.7632 6.95966 26.6761 4.36076C29.5889 1.76186 33.3588 0.325195 37.2656 0.325195C41.1724 0.325195 44.9423 1.76186 47.8552 4.36076C50.7681 6.95966 52.6198 10.5386 53.0566 14.4141C53.4934 18.2895 52.4848 22.1898 50.2233 25.3698C47.9618 28.5499 44.606 30.7869 40.7969 31.6536V33.825H51.3906V39.6765C54.7283 41.7745 57.552 44.5932 59.6537 47.925ZM26.9892 9.34562C25.6311 11.3745 24.9062 13.7598 24.9062 16.2C24.91 19.4709 26.2133 22.6069 28.5304 24.9198C30.8474 27.2327 33.9889 28.5337 37.2656 28.5375C39.7101 28.5375 42.0996 27.8139 44.1321 26.4582C46.1646 25.1026 47.7487 23.1757 48.6842 20.9213C49.6196 18.6669 49.8644 16.1863 49.3875 13.793C48.9106 11.3998 47.7335 9.20147 46.005 7.47604C44.2765 5.75061 42.0743 4.57558 39.6768 4.09953C37.2793 3.62349 34.7943 3.86781 32.5359 4.80161C30.2775 5.7354 28.3472 7.31673 26.9892 9.34562ZM3.71875 76.125H7.25V47.925H3.71875V76.125ZM47.8594 37.8082V37.35H46.7647C47.1355 37.491 47.5062 37.632 47.8594 37.8082ZM27.7666 37.35H26.6719V37.8082C27.025 37.632 27.3958 37.491 27.7666 37.35ZM10.7812 51.45V72.6H13.0059C11.5388 69.2668 10.7813 65.6657 10.7813 62.025C10.7813 58.3842 11.5388 54.7832 13.0059 51.45H10.7812ZM37.2656 84.9375C37.6541 84.9375 38.0602 84.9198 38.4486 84.9022C38.7704 84.8915 39.0857 84.8613 39.3984 84.8313C39.6004 84.8119 39.8014 84.7927 40.0023 84.7788C45.7073 84.1019 50.9506 81.3138 54.6964 76.9654C58.4423 72.617 60.4183 67.0244 60.2342 61.2924C60.0501 55.5603 57.7193 50.1056 53.7021 46.0056C49.685 41.9056 44.2736 39.4585 38.5369 39.1477C38.1131 39.1301 37.6894 39.1125 37.2656 39.1125C36.8419 39.1125 36.4181 39.1301 35.9944 39.1477C32.1646 39.3605 28.4493 40.528 25.188 42.5435C21.9267 44.5589 19.2233 47.3581 17.325 50.6853C15.4267 54.0124 14.3939 57.7614 14.3211 61.5896C14.2482 65.4178 15.1376 69.2033 16.908 72.6C18.6372 75.9029 21.1445 78.737 24.2139 80.8585C27.2834 82.98 30.8232 84.3254 34.5289 84.7788C34.7299 84.7927 34.9308 84.8119 35.1329 84.8313C35.4456 84.8613 35.7609 84.8915 36.0827 84.9022C36.4711 84.9198 36.8772 84.9375 37.2656 84.9375ZM61.5253 72.6H63.75V62.025V51.45H61.5253C62.9924 54.7832 63.75 58.3842 63.75 62.025C63.75 65.6657 62.9924 69.2668 61.5253 72.6ZM70.8125 47.925H67.2812V76.125H70.8125V47.925Z" />
<path d="M38.0602 49.2645L38.5193 58.5882L39.2255 59.0817C39.9736 59.6283 40.48 60.4434 40.638 61.3553L40.7616 62.0779L48.6363 67.3478L53.9332 70.8904L54.7277 68.8283C55.5809 66.6613 56.0181 64.3534 56.0166 62.025C55.9995 57.5214 54.3625 53.1738 51.4037 49.7738C48.445 46.3739 44.3613 44.1479 39.8965 43.5012L37.7777 43.2015L38.0779 49.2645H38.0602ZM43.9221 59.9629C43.5789 58.7474 42.9069 57.6497 41.9799 56.7904L41.8563 54.3053C43.0775 55.0617 44.0985 56.1003 44.8329 57.3335C45.5674 58.5667 45.9938 59.9582 46.0761 61.3905L43.9221 59.9629ZM52.4854 62.025C52.489 63.1643 52.3587 64.3001 52.0969 65.409L49.4838 63.6642C49.5754 63.0811 49.6226 62.4919 49.6251 61.9017C49.6199 59.3978 48.8568 56.954 47.4357 54.8907C46.0147 52.8274 44.0022 51.2411 41.6621 50.3397L41.5208 47.4492C44.6745 48.3806 47.4438 50.3012 49.4186 52.9265C51.3935 55.5517 52.4688 58.7421 52.4854 62.025Z" />
<path d="M33.6814 61.4258C33.7453 60.9599 33.9035 60.5118 34.1463 60.1089C34.3892 59.7059 34.7115 59.3564 35.0939 59.0817L35.7825 58.5705L36.2415 49.2469H36.2239L36.524 43.2015L34.3876 43.5364C29.9798 44.2487 25.9671 46.4964 23.0614 49.8809C20.1558 53.2653 18.5449 57.5678 18.5147 62.025C18.5132 64.3534 18.9504 66.6613 19.8036 68.8283L20.5981 70.8904L33.5754 62.2189L33.6814 61.4258ZM32.3218 56.7904C31.359 57.6978 30.6733 58.8588 30.3443 60.1392L28.1903 61.5668C28.2524 60.1018 28.6726 58.6742 29.4143 57.4085C30.156 56.1428 31.1966 55.0774 32.4454 54.3053L32.3218 56.7904ZM32.6397 50.322C30.2974 51.2275 28.2829 52.8168 26.8593 54.8825C25.4356 56.9482 24.6688 59.3943 24.659 61.9017C24.6674 62.5449 24.7205 63.1869 24.8179 63.8228L22.4343 65.409C22.1726 64.3001 22.0422 63.1643 22.0459 62.025C22.0706 58.7852 23.1227 55.6364 25.0513 53.0304C26.9799 50.4245 29.6858 48.4953 32.7809 47.5197L32.6397 50.322Z" />
<path d="M39.5609 64.6158L38.7311 65.0388C38.2593 65.2956 37.7323 65.4347 37.195 65.4442C36.9333 65.4488 36.6721 65.4192 36.4181 65.3561C36.1439 65.2909 35.8775 65.1964 35.6236 65.0741L34.8114 64.6863L26.6719 69.0573L21.2338 71.9831L22.558 73.6222C24.311 75.8415 26.5452 77.6352 29.0926 78.8685C31.6401 80.1017 34.4344 80.7424 37.2656 80.7424C40.0968 80.7424 42.8912 80.1017 45.4387 78.8685C47.9861 77.6352 50.2203 75.8415 51.9733 73.6222L53.2975 71.9655L39.5609 64.6158ZM34.9703 68.5991C36.4239 69.1077 38.0096 69.0953 39.455 68.5638L41.5561 69.6918C40.2232 70.4201 38.7299 70.8062 37.2105 70.8154C35.6911 70.8246 34.1932 70.4567 32.8516 69.7447L34.9703 68.5991ZM37.2656 77.2177C33.3499 77.2225 29.5845 75.7128 26.7602 73.0053L29.3556 71.613C31.578 73.404 34.3513 74.3751 37.2076 74.3622C40.0638 74.3494 42.8282 73.3535 45.0344 71.5425L47.7711 73.023C44.9403 75.7183 41.1777 77.2207 37.2656 77.2177Z" />
</svg>
