<svg width="30" height="30" viewBox="0 0 30 30" fill="#9FD080" xmlns="http://www.w3.org/2000/svg">
<circle cx="15" cy="15" r="15" />
<path d="M28.8212 9.16103C28.0656 7.37455 26.9843 5.77038 25.6063 4.393C24.2293 3.01562 22.6251 1.9341 20.8389 1.17881C18.9892 0.396518 17.025 0 15 0C12.9753 0 11.0108 0.396518 9.16113 1.17881C7.37494 1.9341 5.77074 3.01562 4.39335 4.393C3.01565 5.77038 1.93442 7.37455 1.17882 9.16103C0.396522 11.0101 0 12.9749 0 14.9998C0 17.0242 0.396829 18.989 1.17882 20.8384C1.93442 22.6245 3.01565 24.229 4.39335 25.6061C5.77074 26.9835 7.37494 28.065 9.16113 28.8206C11.0112 29.6029 12.9753 30 15 30C17.025 30 18.9892 29.6029 20.8389 28.8206C22.6251 28.065 24.2293 26.9838 25.6063 25.6061C26.984 24.229 28.0656 22.6245 28.8212 20.8384C29.6032 18.989 30 17.0239 30 14.9998C30 12.9749 29.6032 11.0101 28.8212 9.16103ZM27.7179 20.3725C27.0227 22.0162 26.0274 23.4924 24.7602 24.76C23.4924 26.0275 22.0168 27.0227 20.373 27.7182C18.6706 28.4382 16.8629 28.8028 15 28.8028C13.1368 28.8028 11.3288 28.4382 9.6267 27.7182C7.98322 27.0227 6.5067 26.0275 5.23918 24.76C3.97197 23.4924 2.97668 22.0166 2.28153 20.3725C1.56184 18.6704 1.19662 16.8627 1.19662 14.9998C1.19662 13.1363 1.56184 11.3287 2.28184 9.62691C2.97698 7.98314 3.97228 6.50694 5.23949 5.23944C6.50701 3.97193 7.98322 2.97664 9.62701 2.28151C11.3291 1.56121 13.1371 1.1963 15.0003 1.1963C16.8632 1.1963 18.6709 1.56121 20.3733 2.28151C22.0168 2.97695 23.4927 3.97193 24.7605 5.23944C26.0277 6.50694 27.023 7.98283 27.7182 9.62691C28.4385 11.3287 28.8034 13.1363 28.8034 14.9998C28.8034 16.8627 28.4382 18.6704 27.7179 20.3725ZM12.9726 17.4652C12.9726 16.7836 13.3053 16.1808 13.8157 15.807C13.8157 14.5297 13.8157 7.79409 13.8157 7.35982C13.8157 6.68893 14.3592 6.14602 15.0298 6.14602C15.7004 6.14602 16.2436 6.68924 16.2436 7.35982C16.2436 7.42642 16.2436 7.6388 16.2436 7.95491C16.2494 7.9546 16.254 7.95337 16.2595 7.95337H17.6679C17.7922 7.95337 17.8932 8.05005 17.8932 8.16912V8.78907C17.8932 8.90784 17.7922 9.0042 17.6679 9.0042H16.2595C16.254 9.0042 16.2494 9.00328 16.2436 9.00298C16.2436 9.45013 16.2436 9.95898 16.2436 10.4945C16.2494 10.4942 16.254 10.493 16.2595 10.493H17.6679C17.7922 10.493 17.8932 10.5894 17.8932 10.7087V11.3284C17.8932 11.4478 17.7922 11.5441 17.6679 11.5441H16.2595C16.254 11.5441 16.2494 11.5429 16.2436 11.5426C16.2436 12.0462 16.2436 12.552 16.2436 13.0344C16.2494 13.0341 16.254 13.0332 16.2595 13.0332H17.6679C17.7922 13.0332 17.8932 13.1296 17.8932 13.2487V13.8683C17.8932 13.9874 17.7922 14.0837 17.6679 14.0837H16.2595C16.254 14.0837 16.2494 14.0828 16.2436 14.0822C16.2436 14.8476 16.2436 15.4731 16.2436 15.8076C16.7546 16.182 17.087 16.7845 17.087 17.4661C17.087 18.6023 16.1659 19.5233 15.0298 19.5233C13.8936 19.5233 12.9726 18.6013 12.9726 17.4652ZM19.7457 17.0929C20.3785 17.6803 21.0427 17.6693 21.8366 17.0579C23.0418 16.1302 23.783 16.1949 23.9813 16.2367L23.7354 17.3968C23.7354 17.3968 23.7493 17.4017 23.7769 17.4032C23.7732 17.4032 23.3549 17.3842 22.5597 17.9971C21.3152 18.9555 19.9958 18.9429 18.9388 17.9621C18.4383 17.4965 18.0077 17.4198 17.6535 17.5008C17.6541 17.4713 17.656 17.4422 17.656 17.4121C17.656 17.0306 17.5731 16.6682 17.4258 16.341C18.2164 16.1701 19.0223 16.4214 19.7457 17.0929ZM6.26425 17.3971L6.01811 16.237C6.21637 16.1952 6.95785 16.1299 8.16307 17.0582C8.95703 17.6696 9.62179 17.6806 10.254 17.0932C11.0007 16.3996 11.8355 16.1532 12.6503 16.3579C12.5076 16.6804 12.4278 17.0374 12.4278 17.4127C12.4278 17.4502 12.4291 17.487 12.4303 17.5238C12.0605 17.4106 11.6013 17.4603 11.0606 17.9627C10.0042 18.9435 8.68419 18.9561 7.43939 17.9977C6.6445 17.3851 6.2265 17.4038 6.22281 17.4038C6.25043 17.4017 6.26425 17.3971 6.26425 17.3971ZM23.9816 19.2547L23.7358 20.4145C23.7358 20.4145 23.7496 20.4194 23.7772 20.421C23.7735 20.421 23.3552 20.4019 22.56 21.0145C21.3155 21.9733 19.9961 21.9607 18.9391 20.9795C18.0813 20.1834 17.4295 20.5247 17.0136 20.8503C16.4526 21.2904 15.8415 21.7207 15.0948 21.7308C15.0921 21.7308 15.0893 21.7308 15.0869 21.7308C15.0571 21.7308 15.0288 21.7265 15.0003 21.7222C14.9718 21.7268 14.9432 21.7308 14.9138 21.7308C14.9113 21.7308 14.9085 21.7308 14.9058 21.7308C14.1588 21.7207 13.5483 21.2901 12.987 20.8503C12.5712 20.5244 11.9193 20.1834 11.0615 20.9795C10.0051 21.961 8.68511 21.9733 7.44031 21.0145C6.64542 20.4026 6.22742 20.421 6.22373 20.421C6.25105 20.4191 6.26486 20.4145 6.26486 20.4145L6.01872 19.2547C6.21698 19.2127 6.95847 19.1473 8.16368 20.076C8.95765 20.6871 9.6224 20.6981 10.2546 20.1107C11.334 19.108 12.5966 19.0378 13.7181 19.917C14.2088 20.3016 14.5811 20.5407 14.9217 20.5456C14.9484 20.5462 14.9745 20.5486 15.0003 20.5523C15.0261 20.5483 15.0522 20.5459 15.0789 20.5456C15.4192 20.5407 15.7918 20.3016 16.2823 19.917C17.404 19.0378 18.6663 19.108 19.7457 20.1107C20.3785 20.6981 21.0427 20.6871 21.8366 20.076C23.0418 19.1479 23.783 19.213 23.9816 19.2547Z" fill="black"/>
</svg>
