<svg width="11" height="20" viewBox="0 0 11 20" fill="none" xmlns="http://www.w3.org/2000/svg">
<path d="M6.24902 13.7949H3.8877C3.89616 12.9824 3.9681 12.318 4.10352 11.8018C4.2474 11.277 4.48014 10.7988 4.80176 10.3672C5.12337 9.93555 5.55078 9.44466 6.08398 8.89453C6.47331 8.49674 6.82878 8.12435 7.15039 7.77734C7.48047 7.42188 7.74707 7.04102 7.9502 6.63477C8.15332 6.22005 8.25488 5.72493 8.25488 5.14941C8.25488 4.56543 8.14909 4.06185 7.9375 3.63867C7.73438 3.21549 7.42969 2.88965 7.02344 2.66113C6.62565 2.43262 6.13053 2.31836 5.53809 2.31836C5.0472 2.31836 4.58171 2.40723 4.1416 2.58496C3.7015 2.7627 3.34603 3.03776 3.0752 3.41016C2.80436 3.77409 2.66471 4.25228 2.65625 4.84473H0.307617C0.324544 3.88835 0.561523 3.06738 1.01855 2.38184C1.48405 1.69629 2.11035 1.17155 2.89746 0.807617C3.68457 0.443685 4.56478 0.261719 5.53809 0.261719C6.61296 0.261719 7.52702 0.45638 8.28027 0.845703C9.04199 1.23503 9.62174 1.79362 10.0195 2.52148C10.4173 3.24089 10.6162 4.0957 10.6162 5.08594C10.6162 5.84766 10.4596 6.55013 10.1465 7.19336C9.8418 7.82812 9.44824 8.4248 8.96582 8.9834C8.4834 9.54199 7.97135 10.0752 7.42969 10.583C6.96419 11.0146 6.65104 11.5013 6.49023 12.043C6.32943 12.5846 6.24902 13.1686 6.24902 13.7949ZM3.78613 17.8193C3.78613 17.4385 3.90462 17.1169 4.1416 16.8545C4.37858 16.5921 4.72135 16.4609 5.16992 16.4609C5.62695 16.4609 5.97396 16.5921 6.21094 16.8545C6.44792 17.1169 6.56641 17.4385 6.56641 17.8193C6.56641 18.1833 6.44792 18.4964 6.21094 18.7588C5.97396 19.0212 5.62695 19.1523 5.16992 19.1523C4.72135 19.1523 4.37858 19.0212 4.1416 18.7588C3.90462 18.4964 3.78613 18.1833 3.78613 17.8193Z" fill="black"/>
</svg>
