<svg width="27" height="27" viewBox="0 0 27 27" fill="none" xmlns="http://www.w3.org/2000/svg">
<g id="&#209;&#128;&#208;&#176;&#208;&#183;&#208;&#178;&#208;&#181;&#209;&#128;&#208;&#189;&#209;&#131;&#209;&#130;&#209;&#140;">
<g id="Group 3">
<path id="Vector" d="M1.22989 26.7609C1.05952 26.7609 0.889151 26.697 0.758714 26.5652C0.499171 26.3083 0.499171 25.885 0.758714 25.6241L10.0198 16.3632C10.2793 16.1049 10.7012 16.1049 10.9608 16.3632C11.2203 16.6227 11.2203 17.046 10.9608 17.3043L1.69973 26.5652C1.57062 26.697 1.40025 26.7609 1.22989 26.7609Z" fill="black"/>
<path id="Vector_2" d="M16.8763 11.1137C16.7059 11.1137 16.5355 11.0498 16.4051 10.918C16.1455 10.6598 16.1455 10.2379 16.4051 9.97701L25.6659 0.716988C25.9255 0.457436 26.3488 0.457436 26.6071 0.716988C26.8667 0.97654 26.8667 1.39848 26.6071 1.65803L17.3462 10.918C17.2171 11.0498 17.0467 11.1137 16.8763 11.1137Z" fill="black"/>
<path id="Vector_3" d="M26.139 26.7609C25.9686 26.7609 25.7983 26.697 25.6678 26.5652L16.4049 17.3043C16.1466 17.046 16.1466 16.6227 16.4049 16.3632C16.6644 16.1049 17.0877 16.1049 17.3459 16.3632L26.6089 25.6241C26.8671 25.885 26.8671 26.3083 26.6089 26.5652C26.4798 26.697 26.3094 26.7609 26.139 26.7609Z" fill="black"/>
<path id="Vector_4" d="M10.492 11.1137C10.3216 11.1137 10.1513 11.0498 10.0208 10.918L0.759782 1.65803C0.500239 1.39848 0.500239 0.97654 0.759782 0.716988C1.01933 0.457436 1.44125 0.457436 1.70079 0.716988L10.9618 9.97701C11.2214 10.2379 11.2214 10.6598 10.9618 10.918C10.8327 11.0498 10.6624 11.1137 10.492 11.1137Z" fill="black"/>
<path id="Vector_5" d="M26.2997 7.70283C25.9146 7.70283 25.5995 7.39051 25.5995 7.00257V1.40051H19.9974C19.6123 1.40051 19.2972 1.0868 19.2972 0.700257C19.2972 0.313715 19.6123 0 19.9974 0H26.2997C26.6849 0 27 0.313715 27 0.700257V7.00257C27 7.39051 26.6849 7.70283 26.2997 7.70283Z" fill="black"/>
<path id="Vector_6" d="M26.2997 27H19.9974C19.6123 27 19.2972 26.6849 19.2972 26.2997C19.2972 25.9146 19.6123 25.5995 19.9974 25.5995H25.5995V19.9974C25.5995 19.6095 25.9146 19.2972 26.2997 19.2972C26.6849 19.2972 27 19.6095 27 19.9974V26.2997C27 26.6849 26.6849 27 26.2997 27Z" fill="black"/>
<path id="Vector_7" d="M0.700256 7.70283C0.313715 7.70283 0 7.39051 0 7.00257V0.700257C0 0.313715 0.313715 0 0.700256 0H7.00256C7.3891 0 7.70282 0.313715 7.70282 0.700257C7.70282 1.0868 7.3891 1.40051 7.00256 1.40051H1.40051V7.00257C1.40051 7.39051 1.0868 7.70283 0.700256 7.70283Z" fill="black"/>
<path id="Vector_8" d="M7.00256 27H0.700256C0.313715 27 0 26.6849 0 26.2997V19.9974C0 19.6095 0.313715 19.2972 0.700256 19.2972C1.0868 19.2972 1.40051 19.6095 1.40051 19.9974V25.5995H7.00256C7.3891 25.5995 7.70282 25.9146 7.70282 26.2997C7.70282 26.6849 7.3891 27 7.00256 27Z" fill="black"/>
</g>
</g>
</svg>
