<svg width="25" height="25" viewBox="0 0 25 25" fill="none" xmlns="http://www.w3.org/2000/svg">
<path d="M24.9999 24.4565C24.9999 24.7566 24.7566 25 24.4565 25H0.543477C0.243369 25 0 24.7566 0 24.4565V0.543532C0 0.243423 0.243369 5.44215e-05 0.543477 5.44215e-05C0.843585 5.44215e-05 1.08695 0.243423 1.08695 0.543532V16.1484C1.93804 14.4909 3.03923 12.3497 3.2545 11.948C3.83461 10.8643 4.562 10.8629 5.76385 10.869L5.97988 10.8693C7.71303 10.8693 8.16944 11.7606 8.44384 13.5163C8.47993 13.7467 8.51683 14.0134 8.55661 14.3029C8.93846 17.0713 9.35509 18.4751 9.79454 18.4751C10.4524 18.4751 10.9166 16.2701 11.4077 13.9359C11.5325 13.3431 11.6662 12.707 11.8159 12.0337C12.47 9.08889 13.928 4.11005 16.3405 3.85211C16.8534 3.79662 17.3483 3.80113 17.7851 3.80516C18.8087 3.81548 19.3614 3.79798 19.6528 3.34923C20.8655 1.4781 21.8235 0 24.4565 0C24.7566 0 25 0.243369 25 0.543477C25 0.843585 24.7566 1.08695 24.4565 1.08695C22.4967 1.08695 21.8471 1.9619 20.5649 3.94048C19.9354 4.91119 18.8326 4.90271 17.7756 4.89211C17.3484 4.88814 16.9076 4.88466 16.4562 4.93271C15.4624 5.03912 13.9702 7.3489 12.8769 12.2694C12.7283 12.9386 12.5954 13.5705 12.4714 14.1596C11.7626 17.5284 11.3346 19.562 9.79465 19.562C8.18493 19.562 7.794 16.7283 7.48009 14.4515C7.44107 14.1692 7.40526 13.9088 7.37026 13.684C7.11151 12.0298 6.84933 11.9562 5.97999 11.9562L5.76135 11.956C4.57276 11.9499 4.46716 11.9862 4.21293 12.4612C3.89325 13.0574 1.4932 17.7374 1.08712 18.5297V23.913H24.4565C24.7566 23.913 24.9999 24.1564 24.9999 24.4565ZM24.4565 4.34787H22.826C22.5259 4.34787 22.2826 4.59124 22.2826 4.89135C22.2826 5.19146 22.5259 5.43483 22.826 5.43483H24.4565C24.7566 5.43483 24.9999 5.19146 24.9999 4.89135C24.9999 4.59124 24.7566 4.34787 24.4565 4.34787ZM24.4565 8.15221H22.826C22.5259 8.15221 22.2826 8.39558 22.2826 8.69569C22.2826 8.9958 22.5259 9.23916 22.826 9.23916H24.4565C24.7566 9.23916 24.9999 8.9958 24.9999 8.69569C24.9999 8.39558 24.7566 8.15221 24.4565 8.15221ZM24.4565 11.9566H22.826C22.5259 11.9566 22.2826 12.1999 22.2826 12.5C22.2826 12.8001 22.5259 13.0435 22.826 13.0435H24.4565C24.7566 13.0435 24.9999 12.8001 24.9999 12.5C24.9999 12.1999 24.7566 11.9566 24.4565 11.9566ZM24.4565 15.7609H22.826C22.5259 15.7609 22.2826 16.0043 22.2826 16.3044C22.2826 16.6045 22.5259 16.8478 22.826 16.8478H24.4565C24.7566 16.8478 24.9999 16.6045 24.9999 16.3044C24.9999 16.0043 24.7566 15.7609 24.4565 15.7609ZM24.4565 19.5652H22.826C22.5259 19.5652 22.2826 19.8086 22.2826 20.1087C22.2826 20.4088 22.5259 20.6522 22.826 20.6522H24.4565C24.7566 20.6522 24.9999 20.4088 24.9999 20.1087C24.9999 19.8086 24.7566 19.5652 24.4565 19.5652Z" fill="black"/>
</svg>
