<svg width="25" height="25" viewBox="0 0 25 25" fill="none" xmlns="http://www.w3.org/2000/svg">
<path d="M24.7498 21.9688L13.8265 0.983234C13.4929 0.330351 12.9092 -0.042724 12.2839 0.00391054C11.6168 0.00391054 11.0748 0.376986 10.7412 1.02987L0.234779 22.0154C-0.0987592 22.6216 -0.0570669 23.3678 0.234779 24.0207C0.568318 24.6269 1.15201 25 1.77739 25H23.2072C23.8743 25 24.4163 24.6269 24.7498 23.974C25.0834 23.3678 25.0834 22.6216 24.7498 21.9688ZM24.0411 23.5543C23.8743 23.8808 23.5408 24.1139 23.2072 24.1139H1.77739C1.44386 24.1139 1.11032 23.9274 0.943548 23.601C0.776779 23.2745 0.776779 22.8548 0.943548 22.5284L11.45 1.54285C11.6168 1.21641 11.9086 0.983234 12.2839 0.983234C12.6174 0.983234 12.9509 1.16977 13.1177 1.49621L24.0411 22.4817C24.2078 22.8082 24.2078 23.1813 24.0411 23.5543ZM12.4923 4.9938C12.0337 4.9938 11.5751 5.22697 11.2832 5.60005C10.9497 5.97313 10.8246 6.48611 10.8246 6.99908L11.45 17.3519C11.4917 17.9582 11.9503 18.4245 12.4923 18.4245C13.0343 18.4245 13.4929 17.9582 13.5346 17.3519L14.16 6.95245C14.2017 6.43947 14.0349 5.92649 13.7014 5.55341C13.4095 5.18034 12.9926 4.9938 12.4923 4.9938ZM12.7008 17.2587C12.7008 17.3986 12.6174 17.4452 12.4923 17.4452C12.3672 17.4452 12.2839 17.3519 12.2839 17.2587L11.6585 6.90582C11.6585 6.62601 11.7419 6.39284 11.8669 6.2063C12.0337 6.01976 12.2422 5.92649 12.4923 5.92649C12.7425 5.92649 12.9509 6.01976 13.1177 6.2063C13.2845 6.39284 13.3679 6.62601 13.3262 6.90582L12.7008 17.2587ZM12.4923 19.3106C11.7002 19.3106 11.0748 20.0101 11.0748 20.8962C11.0748 21.7822 11.7002 22.4817 12.4923 22.4817C13.2845 22.4817 13.9099 21.7822 13.9099 20.8962C13.9099 20.0101 13.2845 19.3106 12.4923 19.3106ZM12.4923 21.549C12.1588 21.549 11.9086 21.2692 11.9086 20.8962C11.9086 20.5231 12.1588 20.2433 12.4923 20.2433C12.8259 20.2433 13.076 20.5231 13.076 20.8962C13.1177 21.2692 12.8259 21.549 12.4923 21.549Z" fill="black"/>
</svg>
