<svg width="44" height="55" fill="none" xmlns="http://www.w3.org/2000/svg"><path d="M17.832 2.919a8.5 8.5 0 0 1 8.336 0l13 7.314a8.5 8.5 0 0 1 4.332 7.408v20.42a8.5 8.5 0 0 1-4.566 7.535l-13 6.787a8.5 8.5 0 0 1-7.868 0l-13-6.787A8.5 8.5 0 0 1 .5 38.06V17.64a8.5 8.5 0 0 1 4.332-7.408l13-7.314Z" fill="#BBE0F0" stroke="#000"/><g fill="#000"><path d="M17.3 32.906a2.354 2.354 0 0 0-2.351-2.35H9.308a2.35 2.35 0 1 0 0 4.7h5.64a2.353 2.353 0 0 0 2.351-2.35Zm-8.462 0a.47.47 0 0 1 .47-.47h5.64a.47.47 0 1 1 0 .94h-5.64a.47.47 0 0 1-.47-.47ZM12.128 19.273a5.171 5.171 0 1 0 0 10.342 5.171 5.171 0 0 0 0-10.341Zm0 8.462a3.29 3.29 0 1 1 0-6.58 3.29 3.29 0 0 1 0 6.58ZM34.222 20.684h-6.581a2.823 2.823 0 0 0-2.82 2.82v4.231a2.824 2.824 0 0 0 2.82 2.82h2.35v1.41h-1.41a.94.94 0 0 0 0 1.881h4.701a.94.94 0 0 0 0-1.88h-1.41v-1.41h2.35a2.824 2.824 0 0 0 2.82-2.821v-4.23a2.824 2.824 0 0 0-2.82-2.821Zm.94 7.051a.94.94 0 0 1-.94.94h-6.581a.94.94 0 0 1-.94-.94v-4.23a.94.94 0 0 1 .94-.94h6.581a.94.94 0 0 1 .94.94v4.23ZM31.597 35.062a.949.949 0 0 0-.144-.117c-.023-.016-.05-.027-.074-.04a.942.942 0 0 0-.088-.048.944.944 0 0 0-.097-.03c-.026-.007-.051-.018-.079-.023a.944.944 0 0 0-.368 0c-.027.005-.053.015-.08.023a.547.547 0 0 0-.183.076c-.025.014-.05.025-.074.04a.943.943 0 0 0-.144.118l-2.82 2.82a.94.94 0 0 0 1.329 1.33l1.216-1.215v3.371a.94.94 0 0 1-.94.94H14.01a.94.94 0 0 1-.94-.94v-4.23a.94.94 0 0 0-1.881 0v4.23a2.824 2.824 0 0 0 2.82 2.821h15.043a2.823 2.823 0 0 0 2.82-2.82v-3.372l1.216 1.216a.94.94 0 0 0 1.33-1.33l-2.82-2.82ZM30.932 19.744a.94.94 0 0 0 .94-.94v-5.642a2.824 2.824 0 0 0-2.82-2.82H14.008a2.824 2.824 0 0 0-2.821 2.82v1.962l-1.216-1.216a.94.94 0 0 0-1.329 1.33l2.82 2.82.018.014c.038.037.08.072.124.102.017.011.036.02.054.03.035.02.07.04.108.056.021.01.047.014.067.021a.956.956 0 0 0 .109.033.942.942 0 0 0 .185.02h.013a.93.93 0 0 0 .173-.018.923.923 0 0 0 .131-.04c.015-.005.03-.008.044-.014a.94.94 0 0 0 .137-.073l.025-.013a.951.951 0 0 0 .144-.12l2.82-2.82a.94.94 0 0 0-1.329-1.329l-1.218 1.217v-1.962a.94.94 0 0 1 .94-.94h15.043a.94.94 0 0 1 .94.94v5.641a.94.94 0 0 0 .94.94Z"/></g></svg>