<svg xmlns="http://www.w3.org/2000/svg" xmlns:xlink="http://www.w3.org/1999/xlink" version="1.1" viewBox="0 0 96 120" x="0px" y="0px"><path d="M4.164 93.832c-0.512 0-1.024-0.192-1.416-0.588-0.78-0.772-0.78-2.044 0-2.828l27.832-27.828c0.78-0.776 2.048-0.776 2.828 0 0.78 0.78 0.78 2.052 0 2.828l-27.832 27.828c-0.388 0.396-0.9 0.588-1.412 0.588z" fill="#000000"/><path d="M64.164 33.832c-0.512 0-1.024-0.192-1.416-0.588-0.78-0.776-0.78-2.044 0-2.828l27.828-27.828c0.78-0.78 2.052-0.78 2.828 0 0.78 0.78 0.78 2.048 0 2.828l-27.828 27.828c-0.388 0.396-0.9 0.588-1.412 0.588z" fill="#000000"/><path d="M92 93.832c-0.512 0-1.024-0.192-1.416-0.588l-27.836-27.828c-0.776-0.776-0.776-2.048 0-2.828 0.78-0.776 2.052-0.776 2.828 0l27.836 27.828c0.776 0.784 0.776 2.056 0 2.828-0.388 0.396-0.9 0.588-1.412 0.588z" fill="#000000"/><path d="M32 33.832c-0.512 0-1.024-0.192-1.416-0.588l-27.832-27.828c-0.78-0.78-0.78-2.048 0-2.828s2.048-0.78 2.828 0l27.832 27.828c0.78 0.784 0.78 2.052 0 2.828-0.388 0.396-0.9 0.588-1.412 0.588z" fill="#000000"/><path d="M94 22c-1.1 0-2-0.892-2-2v-16h-16c-1.1 0-2-0.896-2-2s0.9-2 2-2h18c1.1 0 2 0.896 2 2v18c0 1.108-0.9 2-2 2z" fill="#000000"/><path d="M94 96h-18c-1.1 0-2-0.9-2-2s0.9-2 2-2h16v-16c0-1.108 0.9-2 2-2s2 0.892 2 2v18c0 1.1-0.9 2-2 2z" fill="#000000"/><path d="M2 22c-1.104 0-2-0.892-2-2v-18c0-1.104 0.896-2 2-2h18c1.104 0 2 0.896 2 2s-0.896 2-2 2h-16v16c0 1.108-0.896 2-2 2z" fill="#000000"/><path d="M20 96h-18c-1.104 0-2-0.9-2-2v-18c0-1.108 0.896-2 2-2s2 0.892 2 2v16h16c1.104 0 2 0.9 2 2s-0.896 2-2 2z" fill="#000000"/><text x="0" y="111" fill="#000000" font-size="5px" font-weight="bold" font-family="'Helvetica Neue', Helvetica, Arial-Unicode, Arial, Sans-serif">Created by iconsmind.com</text><text x="0" y="116" fill="#000000" font-size="5px" font-weight="bold" font-family="'Helvetica Neue', Helvetica, Arial-Unicode, Arial, Sans-serif">from the Noun Project</text></svg>