<svg xmlns="http://www.w3.org/2000/svg" xmlns:xlink="http://www.w3.org/1999/xlink" version="1.1" x="0px" y="0px" viewBox="0 0 100 125" enable-background="new 0 0 100 100" xml:space="preserve"><path d="M75,17v-4c-17.645,0-32,14.355-32,32h4C47,29.561,59.561,17,75,17z"/><path d="M42.17,53.562l2-3.464C30.8,42.378,26.202,25.22,33.922,11.849l-3.465-2C21.635,25.13,26.89,44.74,42.17,53.562z"/><path d="M33.21,62.869c5.547,0,11.023-1.457,15.96-4.307l-2-3.464c-6.482,3.742-14.028,4.738-21.249,2.804  c-7.22-1.935-13.257-6.57-16.999-13.053l-3.465,2c4.277,7.408,11.178,12.706,19.429,14.917  C27.639,62.503,30.433,62.869,33.21,62.869z"/><path d="M25,83v4c17.645,0,32-14.355,32-32h-4C53,70.439,40.439,83,25,83z"/><path d="M69.543,90.151C78.365,74.87,73.11,55.26,57.83,46.438l-2,3.464c13.37,7.72,17.968,24.878,10.248,38.249L69.543,90.151z"/><path d="M75.114,38.234c-8.251-2.209-16.876-1.073-24.284,3.204l2,3.464c6.482-3.742,14.029-4.738,21.249-2.804  c7.22,1.935,13.257,6.57,16.999,13.053l3.465-2C90.266,45.743,83.365,40.445,75.114,38.234z"/><text x="0" y="115" fill="#000000" font-size="5px" font-weight="bold" font-family="'Helvetica Neue', Helvetica, Arial-Unicode, Arial, Sans-serif">Created by Anton Ivanov</text><text x="0" y="120" fill="#000000" font-size="5px" font-weight="bold" font-family="'Helvetica Neue', Helvetica, Arial-Unicode, Arial, Sans-serif">from the Noun Project</text></svg>