<svg xmlns="http://www.w3.org/2000/svg" xmlns:xlink="http://www.w3.org/1999/xlink" version="1.1" x="0px" y="0px" viewBox="0 0 100 125" style="enable-background:new 0 0 100 100;" xml:space="preserve"><g><path d="M50,18c-17.6,0-32,14.4-32,32s14.4,32,32,32c17.6,0,32-14.4,32-32S67.6,18,50,18z M50,80c-16.5,0-30-13.5-30-30   s13.5-30,30-30s30,13.5,30,30S66.5,80,50,80z"/><path d="M50,27c-12.7,0-23,10.3-23,23s10.3,23,23,23c12.7,0,23-10.3,23-23S62.7,27,50,27z M50,71c-11.6,0-21-9.4-21-21   s9.4-21,21-21c11.6,0,21,9.4,21,21S61.6,71,50,71z"/></g><text x="0" y="115" fill="#000000" font-size="5px" font-weight="bold" font-family="'Helvetica Neue', Helvetica, Arial-Unicode, Arial, Sans-serif">Created by C. V. Galli</text><text x="0" y="120" fill="#000000" font-size="5px" font-weight="bold" font-family="'Helvetica Neue', Helvetica, Arial-Unicode, Arial, Sans-serif">from the Noun Project</text></svg>