<svg xmlns="http://www.w3.org/2000/svg" data-name="Layer 1" viewBox="0 0 64 80" x="0px" y="0px"><title>Pipes-All-Outline</title><rect x="32.5" y="10" width="1" height="2"/><rect x="35.536" y="11.964" width="2" height="1" transform="translate(1.887 29.485) rotate(-45)"/><rect x="37" y="15.5" width="2" height="1"/><rect x="36.036" y="18.536" width="1" height="2" transform="translate(-3.113 31.556) rotate(-44.999)"/><rect x="32.5" y="20" width="1" height="2"/><rect x="28.464" y="19.036" width="2" height="1" transform="translate(-5.184 26.556) rotate(-45)"/><rect x="27" y="15.5" width="2" height="1"/><rect x="28.964" y="11.464" width="1" height="2" transform="translate(-0.183 24.486) rotate(-45.001)"/><path d="M34,16a.992.992,0,0,0-.655-.93L33,13l-.345,2.07A1,1,0,1,0,34,16Z"/><path d="M48,34H45.68A14.935,14.935,0,0,0,41,29.32V26H35V24.768a9,9,0,1,0-4,0V26H25v3.32A14.935,14.935,0,0,0,20.32,34H18V32H14V31H6V53h8V52h4V50h2.32a14.984,14.984,0,0,0,25.36,0H48v2h6V32H48ZM26,16a7,7,0,1,1,7,7A7.008,7.008,0,0,1,26,16ZM12,51H8V47h4Zm0-6H8V39h4Zm0-8H8V33h4Zm4,13H14V34h2ZM39,28v.26c-.2-.1-.41-.18-.62-.26ZM27,28h.62c-.21.08-.42.16-.62.26ZM18,48V36h1.26a14.916,14.916,0,0,0,0,12Zm15.67,6.98c-.22.01-.45.02-.67.02s-.45-.01-.67-.02c-.3-.01-.59-.05-.88-.07A13.053,13.053,0,0,1,21.47,48,13,13,0,0,1,32.28,29.02c.24-.01.48-.02.72-.02s.48.01.72.02a13,13,0,0,1,.83,25.89C34.26,54.93,33.97,54.97,33.67,54.98ZM48,42v6H46.74a14.916,14.916,0,0,0,0-12H48Zm2-8h2V50H50Z"/><rect x="57" y="35" width="1" height="14"/><rect x="55" y="35" width="1" height="14"/><path d="M33.45,34.76l.26,5.29.4.28a2.027,2.027,0,0,1,.8,1.29l.07.41,4.46,2.99,3,2.01.45-1.17A10.535,10.535,0,0,0,43.62,42a10.661,10.661,0,0,0-9.13-10.51l-1.2-.17.17,3.44Zm3.32,6.07a3.9,3.9,0,0,0-1.1-1.8l-.07-1.41a5.073,5.073,0,0,1,2.39,4.02ZM41.62,42a8.257,8.257,0,0,1-.22,1.92l-1.48-.99a6.634,6.634,0,0,0,.08-1,7.047,7.047,0,0,0-4.51-6.56l-.08-1.64A8.67,8.67,0,0,1,41.62,42Z"/><path d="M30.97,41.66a1.968,1.968,0,0,1,.8-1.33l.39-.29.26-5.29h-.01l.17-3.43-1.21.19A10.7,10.7,0,0,0,22.38,42a10.535,10.535,0,0,0,.73,3.86l.45,1.17,7.35-4.92Zm-.77-2.63a3.969,3.969,0,0,0-1.12,1.9l-1.22.81a5.1,5.1,0,0,1,2.41-4.12Zm.18-3.67a7.075,7.075,0,0,0-4.52,6.57,7.881,7.881,0,0,0,.09,1.09l-1.35.9A8.257,8.257,0,0,1,24.38,42a8.7,8.7,0,0,1,6.08-8.23Z"/><path d="M34.3,43.47l-.47.24a1.887,1.887,0,0,1-.87.23,1.7,1.7,0,0,1-.44-.05,2.218,2.218,0,0,1-.45-.16l-.46-.22L27,45.99l-3.08,1.66.75.93a10.608,10.608,0,0,0,16.66,0l.75-.94Zm-2.6,2.26a3.755,3.755,0,0,0,2.54-.02l1.19.64a5.192,5.192,0,0,1-4.93.03ZM33,50.62a8.575,8.575,0,0,1-5.95-2.39l1.47-.79a7.029,7.029,0,0,0,8.88-.04l1.55.84A8.611,8.611,0,0,1,33,50.62Z"/><text x="0" y="79" fill="#000000" font-size="5px" font-weight="bold" font-family="'Helvetica Neue', Helvetica, Arial-Unicode, Arial, Sans-serif">Created by SetiawanAP Design Works</text><text x="0" y="84" fill="#000000" font-size="5px" font-weight="bold" font-family="'Helvetica Neue', Helvetica, Arial-Unicode, Arial, Sans-serif">from the Noun Project</text></svg>