<svg xmlns="http://www.w3.org/2000/svg" xmlns:xlink="http://www.w3.org/1999/xlink" version="1.1" x="0px" y="0px" viewBox="0 0 100 125" style="enable-background:new 0 0 100 100;" xml:space="preserve"><path d="M79.4,70.3l-26.2-45c-0.8-1.4-2.2-2.2-3.7-2.1c-1.6,0-2.9,0.8-3.7,2.2l-25.2,45c-0.8,1.3-0.7,2.9,0,4.3  c0.8,1.3,2.2,2.1,3.7,2.1h51.4c1.6,0,2.9-0.8,3.7-2.2C80.2,73.3,80.2,71.7,79.4,70.3z M77.7,73.7c-0.4,0.7-1.2,1.2-2,1.2H24.3  c-0.8,0-1.6-0.4-2-1.1s-0.4-1.6,0-2.3l25.2-45c0.4-0.7,1.1-1.2,2-1.2c0,0,0,0,0,0c0.8,0,1.6,0.4,2,1.1l26.2,45c0,0,0,0,0,0  C78.1,72.1,78.1,72.9,77.7,73.7z M50,33.9c-1.1,0-2.2,0.5-2.9,1.3c-0.8,0.8-1.1,1.9-1.1,3l1.5,22.2c0.1,1.3,1.2,2.3,2.5,2.3  c1.3,0,2.4-1,2.5-2.3L54,38.1c0.1-1.1-0.3-2.2-1.1-3C52.2,34.3,51.2,33.9,50,33.9z M50.5,60.2c0,0.3-0.2,0.4-0.5,0.4  c-0.3,0-0.5-0.2-0.5-0.4L48,38c0-0.6,0.2-1.1,0.5-1.5c0.4-0.4,0.9-0.6,1.5-0.6s1.1,0.2,1.5,0.6c0.4,0.4,0.6,0.9,0.5,1.5L50.5,60.2z   M50,64.6c-1.9,0-3.4,1.5-3.4,3.4s1.5,3.4,3.4,3.4s3.4-1.5,3.4-3.4S51.9,64.6,50,64.6z M50,69.4c-0.8,0-1.4-0.6-1.4-1.4  c0-0.8,0.6-1.4,1.4-1.4s1.4,0.6,1.4,1.4C51.5,68.8,50.8,69.4,50,69.4z"/><text x="0" y="115" fill="#000000" font-size="5px" font-weight="bold" font-family="'Helvetica Neue', Helvetica, Arial-Unicode, Arial, Sans-serif">Created by Mello</text><text x="0" y="120" fill="#000000" font-size="5px" font-weight="bold" font-family="'Helvetica Neue', Helvetica, Arial-Unicode, Arial, Sans-serif">from the Noun Project</text></svg>