<svg width="22" height="22" viewBox="0 0 22 22" fill="none" xmlns="http://www.w3.org/2000/svg">
<g id="&#208;&#184;&#208;&#186;&#208;&#190;&#208;&#189;&#208;&#186;&#208;&#176; &#209;&#129;&#208;&#190;&#209;&#129;&#209;&#130;&#208;&#190;&#209;&#143;&#208;&#189;&#208;&#184;&#209;&#143; &#209;&#131;&#209;&#129;&#209;&#130;&#208;&#176;&#208;&#189;&#208;&#190;&#208;&#178;&#208;&#186;&#208;&#184;">
<path id="Ellipse 3" d="M22 11C22 17.0751 17.0751 22 11 22C4.92487 22 0 17.0751 0 11C0 4.92487 4.92487 0 11 0C17.0751 0 22 4.92487 22 11Z" fill="#82FF9F"/>
<path id="Vector" fill-rule="evenodd" clip-rule="evenodd" d="M3.91693 19.4819C3.9682 19.5337 4.03284 19.5702 4.10366 19.5873C4.17447 19.6045 4.24865 19.6016 4.31792 19.579L5.00466 19.353C5.81985 19.0848 6.69813 19.1722 7.49114 19.5002C8.26363 19.8201 8.92964 20.3614 9.30738 21.1073L9.64994 21.7838C9.6827 21.8488 9.7329 21.9035 9.79494 21.9417C9.85698 21.9799 9.92841 22.0001 10.0012 22H12.0118C12.0855 22 12.1578 21.9791 12.2203 21.9399C12.2827 21.9007 12.3329 21.8448 12.3651 21.7784L12.6712 21.146C13.0455 20.3727 13.7138 19.7928 14.5075 19.4637C15.2846 19.1417 16.1464 19.0715 16.9456 19.334L17.6641 19.5699C17.7335 19.5931 17.8079 19.5965 17.8791 19.5796C17.9503 19.5628 18.0153 19.5265 18.0669 19.4747L19.4897 18.0518C19.5422 17.9994 19.5788 17.9333 19.5953 17.8611C19.6119 17.7888 19.6076 17.7133 19.5831 17.6434L19.3514 16.9799C19.0695 16.1725 19.1399 15.295 19.4714 14.5067C19.8001 13.725 20.3619 13.0595 21.1188 12.6772L21.7822 12.3422C21.8472 12.3094 21.9019 12.2592 21.94 12.1971C21.9782 12.135 21.9983 12.0635 21.9982 11.9906L22 9.97818C21.9999 9.90443 21.979 9.83219 21.9398 9.76974C21.9006 9.7073 21.8445 9.65712 21.7782 9.62501L21.1239 9.30931C20.3631 8.94218 19.7923 8.28685 19.4692 7.50634C19.1415 6.71523 19.0724 5.83772 19.34 5.02429L19.5699 4.32552C19.5925 4.25625 19.5954 4.18201 19.5782 4.11119C19.5611 4.04037 19.5246 3.97577 19.4728 3.9245L18.0501 2.50166C17.9978 2.44918 17.9317 2.41258 17.8594 2.39608C17.7871 2.37958 17.7117 2.38384 17.6418 2.40841L16.9755 2.64021C16.1689 2.92086 15.2923 2.84899 14.5034 2.52187C13.7157 2.19555 13.0462 1.62937 12.6751 0.861713L12.3666 0.223577C12.3346 0.156573 12.2843 0.100025 12.2214 0.0604488C12.1586 0.0208723 12.0859 -7.40602e-05 12.0116 7.92181e-07H10.0011C9.92828 -0.000145481 9.85683 0.0199676 9.79475 0.0580925C9.73267 0.0962174 9.68242 0.150831 9.6496 0.215874L9.33934 0.831544C8.94526 1.61355 8.23903 2.16891 7.43037 2.50492C6.66631 2.8227 5.82099 2.91627 5.03959 2.64389L4.34141 2.40052C4.27145 2.376 4.19599 2.37182 4.12373 2.38838C4.05147 2.40493 3.98537 2.44161 3.93307 2.49414L2.51033 3.91698C2.45854 3.96862 2.4222 4.03367 2.40538 4.10485C2.38856 4.17602 2.39194 4.25046 2.41514 4.31981L2.62544 4.95917C2.90366 5.80505 2.80829 6.71381 2.47378 7.53906C2.16943 8.28983 1.64364 8.93662 0.914606 9.2899L0.223428 9.62483C0.157028 9.65699 0.101026 9.70714 0.0618332 9.76965C0.0226401 9.83216 0.00184012 9.90449 0.00181426 9.97827L1.4859e-07 11.9908C-6.32044e-05 12.0637 0.020133 12.1351 0.0583322 12.1972C0.0965315 12.2592 0.151229 12.3093 0.216312 12.3421L0.896774 12.6861C1.64293 13.0632 2.19098 13.7248 2.51068 14.4974C2.84031 15.2953 2.91345 16.1804 2.62981 16.9958L2.40263 17.6489C2.37809 17.7189 2.37383 17.7943 2.39035 17.8666C2.40687 17.9389 2.44349 18.005 2.49598 18.0573L3.91693 19.4819ZM5.01881 18.5208C4.57888 18.6655 4.09496 18.5502 3.76749 18.2227C3.43454 17.8898 3.32145 17.3957 3.47642 16.951L3.86569 15.8341C3.88253 15.7853 3.88957 15.7337 3.88644 15.6821C3.88379 15.6387 3.87396 15.5961 3.8574 15.556C3.85119 15.541 3.84394 15.5266 3.83691 15.5119C3.76956 15.3717 3.39582 14.5906 3.23394 14.1989C3.07995 13.8265 2.80941 13.0551 2.75356 12.8951C2.74658 12.8751 2.74028 12.8554 2.73187 12.836C2.69566 12.7524 2.63134 12.6837 2.54956 12.6421L1.45923 12.0907C1.04645 11.8819 0.786218 11.4587 0.786218 10.9961C0.786218 10.5256 1.05536 10.0966 1.47897 9.89182L2.54409 9.37697C2.59174 9.35355 2.63416 9.32072 2.66878 9.28045C2.69625 9.24849 2.71835 9.21239 2.7343 9.17354C2.74261 9.1533 2.74866 9.13284 2.75543 9.11204C2.80804 8.95026 3.0569 8.18986 3.2014 7.83341C3.36605 7.42715 3.77585 6.59589 3.82769 6.49104C3.83134 6.48366 3.83499 6.47642 3.8384 6.46892C3.87942 6.37862 3.88484 6.27599 3.85325 6.18165L3.472 5.02186C3.32739 4.58196 3.44266 4.09812 3.77008 3.77069C4.10309 3.43766 4.59729 3.32455 5.04201 3.47957L6.15854 3.86876C6.20909 3.88674 6.26278 3.89418 6.31631 3.89061C6.36343 3.88746 6.40955 3.87586 6.45246 3.85639C6.46414 3.85109 6.47495 3.84533 6.48634 3.83944C6.60755 3.77677 7.36349 3.38747 7.73137 3.23456C8.10222 3.08025 8.89755 2.8205 9.07978 2.76145C9.1052 2.75321 9.13054 2.74589 9.1551 2.73536C9.19065 2.72012 9.22382 2.69969 9.25351 2.67467C9.29343 2.64101 9.32625 2.59971 9.35004 2.55323L9.89938 1.46345C10.1082 1.04929 10.5326 0.788257 10.9964 0.788808C11.4666 0.789367 11.8951 1.05856 12.0996 1.48188L12.6147 2.54779C12.6566 2.63264 12.7275 2.69927 12.8141 2.73589C12.8301 2.74268 12.8465 2.74811 12.8629 2.75392C13.0132 2.8071 13.8161 3.09246 14.2025 3.2525C14.5968 3.41594 15.3892 3.79324 15.5106 3.85118C15.5215 3.85638 15.5317 3.86146 15.5428 3.8662C15.6321 3.90436 15.7326 3.90814 15.8248 3.87647L16.9417 3.48718C17.3862 3.33221 17.8803 3.44529 18.2131 3.77821C18.5406 4.10572 18.6558 4.58975 18.5109 5.02966L18.1283 6.19107C18.0992 6.27945 18.1025 6.37507 18.1372 6.46097C18.1419 6.47281 18.1472 6.48376 18.1526 6.49534C18.2106 6.62017 18.5768 7.4097 18.7417 7.80804C18.903 8.19768 19.1952 8.99421 19.248 9.13851C19.2535 9.15368 19.2589 9.16886 19.2654 9.18363C19.3032 9.26931 19.3706 9.33896 19.4556 9.3795L20.5212 9.89451C20.9445 10.0991 21.2135 10.5279 21.2135 10.9981C21.2135 11.4608 20.9528 11.8842 20.5396 12.0925L19.4483 12.6428C19.3637 12.6852 19.2975 12.7566 19.2614 12.8436C19.2563 12.856 19.2521 12.8683 19.2475 12.881C19.1998 13.0132 18.9079 13.8195 18.7452 14.2066C18.5796 14.6005 18.2024 15.3858 18.1419 15.5115C18.1362 15.5234 18.1306 15.5345 18.1254 15.5466C18.1078 15.5879 18.0973 15.6321 18.0946 15.6771C18.0914 15.7286 18.0985 15.7802 18.1153 15.829L18.5046 16.9458C18.6596 17.3905 18.5465 17.8846 18.2135 18.2176C17.886 18.5451 17.4021 18.6604 16.9621 18.5158L15.8027 18.1345C15.7095 18.104 15.6083 18.1095 15.519 18.1497C15.5152 18.1515 15.5121 18.153 15.5083 18.1547C15.4362 18.1885 14.6124 18.5735 14.206 18.742C13.7994 18.9105 12.9519 19.2177 12.8456 19.2562C12.8382 19.2589 12.8309 19.2614 12.8235 19.2643C12.7314 19.3005 12.6561 19.3702 12.613 19.4597L12.1 20.5247C11.8954 20.9494 11.4654 21.2192 10.994 21.2186C10.5316 21.2181 10.1088 20.9574 9.90064 20.5444L9.35015 19.4524C9.3066 19.3678 9.23401 19.3023 9.14617 19.2673C9.13071 19.2611 9.1149 19.2562 9.09915 19.2508C8.95322 19.2012 8.16657 18.9323 7.79312 18.7778C7.79207 18.7773 7.79123 18.7766 7.79061 18.7757C7.78999 18.7747 7.78916 18.774 7.78812 18.7736C7.36994 18.5993 6.49566 18.169 6.47706 18.1598C6.47648 18.1596 6.47647 18.1595 6.47588 18.1593C6.38375 18.1141 6.27759 18.1067 6.18012 18.1388L5.01881 18.5208Z" fill="black"/>
</g>
</svg>
