<svg width="44" height="55" viewBox="0 0 44 55" fill="none" xmlns="http://www.w3.org/2000/svg">
<g id="Group 2">
<path id="Polygon 1" d="M17.832 2.91883C20.4199 1.46274 23.5801 1.46274 26.168 2.91883L39.168 10.2332C41.844 11.7389 43.5 14.5707 43.5 17.6412V38.0609C43.5 41.227 41.7403 44.1307 38.9336 45.5959L25.9336 52.3825C23.469 53.6691 20.531 53.6691 18.0664 52.3825L5.0664 45.5959C2.25972 44.1307 0.5 41.227 0.5 38.0609V17.6412C0.5 14.5707 2.15597 11.7389 4.83196 10.2332L17.832 2.91883Z" fill="#BBE0F0" stroke="black"/>
<g id="Group 1">
<path id="Vector" d="M17.2992 32.906C17.2984 32.2828 17.0505 31.6854 16.6099 31.2448C16.1693 30.8042 15.5719 30.5563 14.9487 30.5556H9.3077C8.68433 30.5556 8.08649 30.8032 7.6457 31.244C7.20491 31.6848 6.95728 32.2826 6.95728 32.906C6.95728 33.5294 7.20491 34.1272 7.6457 34.568C8.08649 35.0088 8.68433 35.2564 9.3077 35.2564H14.9487C15.5719 35.2557 16.1693 35.0078 16.6099 34.5672C17.0505 34.1265 17.2984 33.5291 17.2992 32.906ZM8.83762 32.906C8.83762 32.7813 8.88714 32.6617 8.9753 32.5736C9.06346 32.4854 9.18303 32.4359 9.3077 32.4359H14.9487C15.0734 32.4359 15.193 32.4854 15.2811 32.5736C15.3693 32.6617 15.4188 32.7813 15.4188 32.906C15.4188 33.0307 15.3693 33.1502 15.2811 33.2384C15.193 33.3265 15.0734 33.3761 14.9487 33.3761H9.3077C9.18303 33.3761 9.06346 33.3265 8.9753 33.2384C8.88714 33.1502 8.83762 33.0307 8.83762 32.906Z" fill="black"/>
<path id="Vector_2" d="M12.1282 19.2735C11.1055 19.2735 10.1058 19.5768 9.2554 20.145C8.40504 20.7132 7.74227 21.5207 7.35089 22.4656C6.95952 23.4105 6.85711 24.4502 7.05664 25.4532C7.25616 26.4563 7.74864 27.3777 8.47181 28.1009C9.19498 28.824 10.1164 29.3165 11.1194 29.516C12.1225 29.7156 13.1622 29.6131 14.1071 29.2218C15.0519 28.8304 15.8595 28.1676 16.4277 27.3173C16.9959 26.4669 17.2992 25.4672 17.2992 24.4444C17.2977 23.0735 16.7524 21.7591 15.783 20.7897C14.8136 19.8203 13.4992 19.275 12.1282 19.2735ZM12.1282 27.735C11.4774 27.735 10.8412 27.5421 10.3001 27.1805C9.75892 26.8189 9.33716 26.305 9.0881 25.7037C8.83904 25.1024 8.77388 24.4408 8.90085 23.8025C9.02782 23.1642 9.34122 22.5778 9.80141 22.1176C10.2616 21.6574 10.8479 21.344 11.4863 21.2171C12.1246 21.0901 12.7862 21.1553 13.3875 21.4043C13.9888 21.6534 14.5027 22.0752 14.8643 22.6163C15.2258 23.1574 15.4188 23.7936 15.4188 24.4444C15.4178 25.3169 15.0708 26.1533 14.4539 26.7702C13.837 27.387 13.0006 27.734 12.1282 27.735Z" fill="black"/>
<path id="Vector_3" d="M34.2222 20.6838H27.641C26.8932 20.6846 26.1763 20.9821 25.6476 21.5108C25.1188 22.0396 24.8214 22.7565 24.8205 23.5043V27.735C24.8214 28.4828 25.1188 29.1997 25.6476 29.7285C26.1763 30.2572 26.8932 30.5547 27.641 30.5556H29.9914V31.9658H28.5812C28.3318 31.9658 28.0927 32.0649 27.9164 32.2412C27.7401 32.4175 27.641 32.6566 27.641 32.906C27.641 33.1553 27.7401 33.3945 27.9164 33.5708C28.0927 33.7471 28.3318 33.8462 28.5812 33.8462H33.282C33.5314 33.8462 33.7705 33.7471 33.9468 33.5708C34.1232 33.3945 34.2222 33.1553 34.2222 32.906C34.2222 32.6566 34.1232 32.4175 33.9468 32.2412C33.7705 32.0649 33.5314 31.9658 33.282 31.9658H31.8718V30.5556H34.2222C34.97 30.5547 35.6869 30.2572 36.2156 29.7285C36.7444 29.1997 37.0418 28.4828 37.0427 27.735V23.5043C37.0418 22.7565 36.7444 22.0396 36.2156 21.5108C35.6869 20.9821 34.97 20.6846 34.2222 20.6838ZM35.1624 27.735C35.1624 27.9844 35.0633 28.2235 34.887 28.3998C34.7107 28.5762 34.4716 28.6752 34.2222 28.6752H27.641C27.3917 28.6752 27.1525 28.5762 26.9762 28.3998C26.7999 28.2235 26.7008 27.9844 26.7008 27.735V23.5043C26.7008 23.2549 26.7999 23.0158 26.9762 22.8395C27.1525 22.6632 27.3917 22.5641 27.641 22.5641H34.2222C34.4716 22.5641 34.7107 22.6632 34.887 22.8395C35.0633 23.0158 35.1624 23.2549 35.1624 23.5043V27.735Z" fill="black"/>
<path id="Vector_4" d="M31.5968 35.0623C31.5528 35.0185 31.5047 34.9791 31.453 34.9447C31.4295 34.9288 31.4036 34.9179 31.3787 34.9043C31.3504 34.8871 31.3212 34.8714 31.2913 34.8573C31.2595 34.8455 31.2272 34.8355 31.1944 34.8272C31.1681 34.8197 31.1427 34.8094 31.1154 34.8037C30.9938 34.7795 30.8686 34.7795 30.7469 34.8037C30.7196 34.8094 30.6942 34.8192 30.6679 34.8272C30.6023 34.8411 30.5399 34.8669 30.4836 34.9034C30.4592 34.917 30.4333 34.9278 30.4098 34.9433C30.3581 34.9777 30.31 35.017 30.266 35.0609L27.4455 37.8814C27.2742 38.0587 27.1795 38.2962 27.1816 38.5427C27.1837 38.7892 27.2826 39.025 27.4569 39.1993C27.6313 39.3736 27.8671 39.4725 28.1136 39.4746C28.3601 39.4768 28.5976 39.382 28.7749 39.2108L29.9915 37.9961V41.3675C29.9915 41.6169 29.8924 41.856 29.7161 42.0323C29.5398 42.2086 29.3006 42.3077 29.0513 42.3077H14.0086C13.7592 42.3077 13.5201 42.2086 13.3438 42.0323C13.1674 41.856 13.0684 41.6169 13.0684 41.3675V37.1367C13.0684 36.8874 12.9693 36.6483 12.793 36.4719C12.6167 36.2956 12.3776 36.1966 12.1282 36.1966C11.8789 36.1966 11.6397 36.2956 11.4634 36.4719C11.2871 36.6483 11.188 36.8874 11.188 37.1367V41.3675C11.1889 42.1153 11.4864 42.8322 12.0151 43.361C12.5439 43.8897 13.2608 44.1872 14.0086 44.188H29.0513C29.7991 44.1872 30.516 43.8897 31.0447 43.361C31.5735 42.8322 31.8709 42.1153 31.8718 41.3675V37.9961L33.0875 39.2117C33.2648 39.383 33.5023 39.4777 33.7488 39.4756C33.9953 39.4734 34.2311 39.3746 34.4054 39.2003C34.5797 39.0259 34.6786 38.7901 34.6807 38.5436C34.6829 38.2971 34.5881 38.0596 34.4169 37.8823L31.5968 35.0623Z" fill="black"/>
<path id="Vector_5" d="M30.9316 19.7436C31.181 19.7436 31.4201 19.6445 31.5964 19.4682C31.7728 19.2919 31.8718 19.0528 31.8718 18.8034V13.1624C31.8709 12.4146 31.5735 11.6977 31.0447 11.169C30.516 10.6402 29.7991 10.3428 29.0513 10.3419H14.0086C13.2608 10.3428 12.5439 10.6402 12.0151 11.169C11.4864 11.6977 11.1889 12.4146 11.188 13.1624V15.1236L9.97241 13.9079C9.79509 13.7367 9.5576 13.6419 9.31109 13.6441C9.06458 13.6462 8.82877 13.7451 8.65446 13.9194C8.48014 14.0937 8.38127 14.3295 8.37912 14.576C8.37698 14.8225 8.47175 15.06 8.64301 15.2374L11.4635 18.0579C11.4687 18.063 11.4753 18.0668 11.4809 18.072C11.5193 18.1094 11.5608 18.1436 11.605 18.174C11.6219 18.1853 11.6412 18.1932 11.6591 18.2031C11.6937 18.2246 11.7296 18.2437 11.7667 18.2605C11.7883 18.2694 11.8137 18.2741 11.8339 18.2812C11.8694 18.2943 11.9057 18.3053 11.9425 18.3141C12.0036 18.3266 12.0658 18.3331 12.1282 18.3333H12.1409C12.199 18.3329 12.2569 18.3271 12.3139 18.3159C12.3586 18.3059 12.4024 18.2925 12.4451 18.276C12.4596 18.2708 12.4747 18.268 12.4892 18.2624C12.5366 18.2419 12.5822 18.2175 12.6256 18.1895C12.6336 18.1843 12.643 18.181 12.651 18.1759C12.7029 18.1411 12.7512 18.1012 12.7953 18.0569L15.6158 15.2364C15.787 15.0591 15.8818 14.8216 15.8797 14.5751C15.8775 14.3286 15.7786 14.0928 15.6043 13.9185C15.43 13.7441 15.1942 13.6453 14.9477 13.6431C14.7012 13.641 14.4637 13.7357 14.2864 13.907L13.0684 15.1236V13.1624C13.0684 12.913 13.1674 12.6739 13.3438 12.4976C13.5201 12.3213 13.7592 12.2222 14.0086 12.2222H29.0513C29.3006 12.2222 29.5398 12.3213 29.7161 12.4976C29.8924 12.6739 29.9915 12.913 29.9915 13.1624V18.8034C29.9915 19.0528 30.0905 19.2919 30.2668 19.4682C30.4432 19.6445 30.6823 19.7436 30.9316 19.7436Z" fill="black"/>
</g>
</g>
</svg>
