<svg width="47" height="47" viewBox="0 0 47 47" fill="#9FD080"  xmlns="http://www.w3.org/2000/svg">
<circle cx="23.5" cy="23.5" r="23" stroke="black"/>
<path d="M34.8114 7.04459V5.07849C26.9936 5.07849 20.6335 12.1343 20.6335 20.8073H22.4058C22.4058 13.2186 27.971 7.04459 34.8114 7.04459Z" fill="black"/>
<path d="M20.2658 25.0157L21.1519 23.3131C15.2282 19.5185 13.191 11.0849 16.6115 4.51277L15.0763 3.52972C11.1676 11.0407 13.4959 20.6795 20.2658 25.0157Z" fill="black"/>
<path d="M16.296 29.5904C18.7537 29.5904 21.1798 28.8743 23.3672 27.4734L22.4811 25.7708C19.6092 27.6101 16.2659 28.0996 13.0666 27.149C9.86768 26.1979 7.19294 23.9197 5.53501 20.7332L3.99982 21.7162C5.89478 25.3574 8.95232 27.9615 12.608 29.0483C13.8277 29.4105 15.0656 29.5904 16.296 29.5904Z" fill="black"/>
<path d="M12.6586 39.4851V41.4512C20.4763 41.4512 26.8364 34.3954 26.8364 25.7225H25.0642C25.0642 33.3111 19.4989 39.4851 12.6586 39.4851Z" fill="black"/>
<path d="M32.3938 43.0001C36.3024 35.4891 33.9742 25.8503 27.2042 21.5141L26.3181 23.2167C32.2418 27.0113 34.279 35.4449 30.8586 42.017L32.3938 43.0001Z" fill="black"/>
<path d="M34.862 17.4818C31.2063 16.396 27.385 16.9544 24.1028 19.0567L24.9889 20.7593C27.8608 18.92 31.2046 18.4305 34.4034 19.3811C37.6023 20.3322 40.2771 22.6104 41.935 25.7969L43.4702 24.8139C41.5752 21.1727 38.5177 18.5686 34.862 17.4818Z" fill="black"/>
</svg>
